<?xml version="1.0" encoding="UTF-8"?>
<svg width="225px" height="42px" viewBox="0 0 225 42" version="1.1" xmlns="http://www.w3.org/2000/svg" xmlns:xlink="http://www.w3.org/1999/xlink">
    <!-- Generator: sketchtool 53 (72520) - https://sketchapp.com -->
    <title>222521F0-7D8A-4755-A94F-E25C1E1577E6</title>
    <desc>Created with sketchtool.</desc>
    <defs>
        <polygon id="path-1" points="0 0.121422222 24.7532889 0.121422222 24.7532889 22.6666667 0 22.6666667"></polygon>
        <polygon id="path-3" points="0.2316 0.352 26.0893778 0.352 26.0893778 23.1109778 0.2316 23.1109778"></polygon>
        <polygon id="path-5" points="0.372088889 0.0143555556 24.4493333 0.0143555556 24.4493333 22.6666667 0.372088889 22.6666667"></polygon>
    </defs>
    <g id="Customer-Facing-Tool" stroke="none" stroke-width="1" fill="none" fill-rule="evenodd">
        <g id="Landing-page---Step-1" transform="translate(-200.000000, -19.000000)">
            <g id="Group-4" transform="translate(200.000000, 15.000000)">
                <g id="Group-20" transform="translate(0.000000, 4.000000)">
                    <g id="Group-16" transform="translate(56.000000, 9.000000)">
                        <g id="Group-3" transform="translate(0.000000, 0.536889)">
                            <mask id="mask-2" fill="white">
                                <use xlink:href="#path-1"></use>
                            </mask>
                            <g id="Clip-2"></g>
                            <path d="M20.8355111,13.0147556 C20.5030667,12.8009778 20.0697333,12.6352 19.5355111,12.5160889 C19.0012889,12.3974222 18.3541778,12.3383111 17.5946222,12.3383111 L2.88484444,12.3383111 L2.88484444,19.7463111 L17.7012889,19.7463111 C19.1492889,19.7463111 20.2124,19.4316444 20.8888444,18.8023111 C21.5661778,18.1734222 21.9039556,17.2174222 21.9039556,15.9352 C21.9039556,14.5343111 21.5484,13.5609778 20.8355111,13.0147556 M19.8030667,3.8432 C19.1137333,3.33297778 18.0932889,3.07786667 16.7395111,3.07786667 L2.88484444,3.07786667 L2.88484444,9.45297778 L16.7750667,9.45297778 C18.1764,9.45297778 19.1377333,9.2512 19.6599556,8.84764444 C20.4439556,8.44408889 20.8355111,7.58897778 20.8355111,6.2832 C20.8355111,5.1672 20.4915111,4.35431111 19.8030667,3.8432 M24.2368444,19.1405333 C23.8928444,20.0432 23.3408444,20.7672 22.5808444,21.3134222 C21.9630667,21.7885333 21.1795111,22.1325333 20.2301778,22.3463111 C19.2804,22.5600889 18.1644,22.6667556 16.8821778,22.6667556 L0.3204,22.6667556 C0.106622222,22.6667556 -4.44444444e-05,22.5600889 -4.44444444e-05,22.3463111 L-4.44444444e-05,0.477422222 C-4.44444444e-05,0.240533333 0.106622222,0.121422222 0.3204,0.121422222 L15.8492889,0.121422222 C21.0728444,0.121422222 23.6848444,2.04453333 23.6848444,5.8912 C23.6848444,8.14764444 23.1386222,9.72631111 22.0466222,10.6285333 C23.8506222,11.5067556 24.7532889,13.2760889 24.7532889,15.9352 C24.7532889,17.1703111 24.5812889,18.2387556 24.2368444,19.1405333" id="Fill-1" fill="#FFFFFF" mask="url(#mask-2)"></path>
                        </g>
                        <path d="M31.1644889,23.2035556 C30.9511556,23.2035556 30.8440444,23.0968889 30.8440444,22.8831111 L30.8440444,1.01422222 C30.8440444,0.777333333 30.9511556,0.658222222 31.1644889,0.658222222 L33.4084889,0.658222222 C33.6218222,0.658222222 33.7293778,0.777333333 33.7293778,1.01422222 L33.7293778,20.2831111 L49.4360444,20.2831111 C49.6498222,20.2831111 49.7564889,20.3897778 49.7564889,20.6035556 L49.7564889,22.8831111 C49.7564889,23.0968889 49.6498222,23.2035556 49.4360444,23.2035556 L31.1644889,23.2035556 Z" id="Fill-4" fill="#FFFFFF"></path>
                        <path d="M74.4032,10.9157778 C74.4032,9.70466667 74.3556444,8.66022222 74.2609778,7.78155556 C74.1658667,6.90333333 73.9872,6.21444444 73.7267556,5.71577778 C73.3938667,4.74244444 72.6458667,4.12555556 71.4827556,3.86377778 C70.5569778,3.62688889 68.7636444,3.50733333 66.1045333,3.50733333 L62.6854222,3.50733333 C60.0258667,3.50733333 58.2209778,3.62688889 57.2716444,3.86377778 C56.1320889,4.12555556 55.3600889,4.74244444 54.9565333,5.71577778 C54.5049778,6.76066667 54.2800889,8.494 54.2800889,10.9157778 L54.2800889,12.8748889 C54.2800889,15.2966667 54.5049778,17.0304444 54.9565333,18.0744444 C55.3840889,19.0246667 56.1676444,19.63 57.3072,19.8913333 C58.2334222,20.1286667 60.0258667,20.2473333 62.6854222,20.2473333 L66.1045333,20.2473333 C68.7405333,20.2473333 70.5214222,20.1286667 71.4472,19.8913333 C72.6103111,19.63 73.3707556,19.0246667 73.7267556,18.0744444 C73.9872,17.5762222 74.1658667,16.8882222 74.2609778,16.0091111 C74.3556444,15.1308889 74.4032,14.086 74.4032,12.8748889 L74.4032,10.9157778 Z M77.0392,16.7571111 C76.8965333,17.8731111 76.6587556,18.7993333 76.3267556,19.5353333 C75.9703111,20.2473333 75.4952,20.8588889 74.9018667,21.3695556 C74.3080889,21.8802222 73.6076444,22.2544444 72.8009778,22.4913333 L72.8009778,22.5268889 C72.1116444,22.7402222 71.2214222,22.9068889 70.1294222,23.0255556 C69.0369778,23.1446667 67.7076444,23.2033333 66.1400889,23.2033333 L62.6854222,23.2033333 C59.0760889,23.2033333 56.5712,22.8713333 55.1703111,22.2064444 C53.6032,21.5175556 52.5463111,20.2473333 52.0005333,18.3953333 C51.8098667,17.7068889 51.6734222,16.7451111 51.5907556,15.5104444 C51.5072,14.2762222 51.4663111,12.7442222 51.4663111,10.9157778 C51.4663111,9.42022222 51.5312,8.11444444 51.6618667,6.998 C51.7920889,5.88244444 52.0236444,4.96777778 52.3565333,4.25577778 C52.7125333,3.54333333 53.1814222,2.93222222 53.7636444,2.42155556 C54.3449778,1.91088889 55.0632,1.51311111 55.9183111,1.22822222 L55.9538667,1.22822222 C57.2832,0.777111111 59.5272,0.551333333 62.6854222,0.551333333 L66.1400889,0.551333333 C69.6067556,0.551333333 72.0996444,0.895777778 73.6196444,1.58422222 C74.3792,1.91711111 75.0263111,2.40377778 75.5605333,3.04466667 C76.0952,3.68555556 76.4925333,4.48111111 76.7538667,5.43088889 C76.8965333,6.09577778 77.0152,7.046 77.1103111,8.28022222 C77.2049778,9.51533333 77.2525333,11.0464444 77.2525333,12.8748889 C77.2525333,14.3473333 77.1814222,15.6411111 77.0392,16.7571111 L77.0392,16.7571111 Z" id="Fill-6" fill="#FFFFFF"></path>
                        <g id="Group-10" transform="translate(83.111111, 0.092444)">
                            <mask id="mask-4" fill="white">
                                <use xlink:href="#path-3"></use>
                            </mask>
                            <g id="Clip-9"></g>
                            <path d="M26.0538222,16.4865333 C26.0773778,16.5105333 26.0893778,16.5576444 26.0893778,16.6287556 C26.0893778,19.0274222 25.3293778,20.7727556 23.8098222,21.8647556 C22.5511556,22.6963111 20.6400444,23.1109778 18.0756,23.1109778 L9.99071111,23.1109778 C8.4236,23.1109778 7.0756,23.0105333 5.94848889,22.8087556 C4.82048889,22.6069778 3.88804444,22.2803111 3.15248889,21.8292 C2.4876,21.3780889 1.93515556,20.8136444 1.49604444,20.1372 C1.05648889,19.4603111 0.742266667,18.6358667 0.552044444,17.6620889 C0.338711111,16.4985333 0.2316,14.1834222 0.2316,10.7167556 C0.2316,6.68031111 0.9676,3.93764444 2.44004444,2.4892 L2.40448889,2.4892 C3.85248889,1.06431111 6.5716,0.351866667 10.5609333,0.351866667 L18.0400444,0.351866667 C20.6991556,0.351866667 22.6996,0.886088889 24.0418222,1.95497778 C25.3827111,3.02342222 26.0538222,4.63853333 26.0538222,6.79853333 L26.0538222,6.86964444 C26.0538222,7.08386667 25.9587111,7.19053333 25.7689333,7.19053333 L23.5253778,7.19053333 C23.3111556,7.19053333 23.2044889,7.08386667 23.2044889,6.86964444 L23.2044889,6.79853333 C23.2044889,4.44786667 21.4827111,3.27275556 18.0400444,3.27275556 L10.3467111,3.27275556 C9.04093333,3.27275556 7.95426667,3.35631111 7.08804444,3.52208889 C6.22093333,3.68831111 5.53871111,3.90208889 5.04004444,4.16297778 C4.13693333,4.70964444 3.5556,5.71853333 3.29471111,7.19053333 C3.1996,7.59453333 3.14004444,8.2652 3.11693333,9.20253333 C3.09293333,10.1412 3.08137778,11.3340889 3.08137778,12.7825333 C3.08137778,14.3492 3.17026667,15.6380889 3.34804444,16.6465333 C3.52626667,17.6563111 3.78137778,18.3740889 4.11426667,18.8016444 C4.94493333,19.7518667 6.82093333,20.2260889 9.74137778,20.2260889 L18.0400444,20.2260889 C19.7258222,20.2260889 20.9720444,20.0247556 21.7800444,19.6207556 C22.7529333,19.1700889 23.2400444,18.2083111 23.2400444,16.7358667 L23.2400444,16.6287556 C23.2400444,16.4154222 23.3471556,16.3087556 23.5609333,16.3087556 L25.8044889,16.3087556 L25.8404889,16.3087556 C25.8636,16.3087556 25.8760444,16.3207556 25.8760444,16.3443111 L26.0538222,16.4865333 Z" id="Fill-8" fill="#FFFFFF" mask="url(#mask-4)"></path>
                        </g>
                        <path d="M124.159289,11.0225778 L139.047289,22.7763556 C139.023289,22.7763556 139.011733,22.8119111 139.011733,22.8834667 C139.011733,23.0968 138.905067,23.2034667 138.690844,23.2034667 L134.951289,23.2034667 L121.452622,12.4474667 L118.175733,12.4474667 L118.175733,22.8834667 C118.175733,23.0968 118.069067,23.2034667 117.855289,23.2034667 L115.611733,23.2034667 C115.397511,23.2034667 115.290844,23.0968 115.290844,22.8834667 L115.290844,1.01413333 C115.290844,0.777244444 115.397511,0.658577778 115.611733,0.658577778 L117.855289,0.658577778 C118.069067,0.658577778 118.175733,0.777244444 118.175733,1.01413333 L118.175733,9.74035556 L121.381511,9.74035556 L135.236178,0.658577778 L138.833956,0.658577778 C139.070844,0.658577778 139.189511,0.777244444 139.189511,1.01413333 C139.189511,1.06213333 139.177511,1.12124444 139.153956,1.19235556 L124.159289,11.0225778 Z" id="Fill-11" fill="#FFFFFF"></path>
                        <g id="Group-15" transform="translate(144.444444, 0.536889)">
                            <mask id="mask-6" fill="white">
                                <use xlink:href="#path-5"></use>
                            </mask>
                            <g id="Clip-14"></g>
                            <path d="M23.7187556,11.2161333 C23.2316444,12.2014667 22.4898667,12.9672444 21.4929778,13.5134667 L21.5285333,13.5134667 C20.7920889,13.9405778 19.8840889,14.2494667 18.8036444,14.4392444 C17.7232,14.6299111 16.4352,14.7245778 14.9392,14.7245778 L13.2294222,14.7245778 L12.8023111,14.7245778 C12.7072,14.7245778 12.6298667,14.7188 12.5707556,14.7068 C12.5112,14.6948 12.4338667,14.6885778 12.3392,14.6885778 C12.2445333,14.6885778 12.1614222,14.6832444 12.0898667,14.6708 C12.0187556,14.6592444 11.9592,14.6530222 11.9120889,14.6530222 L11.4134222,14.6530222 C11.0800889,14.6299111 10.7836444,14.6170222 10.5232,14.6170222 L9.84631111,14.6170222 C7.61431111,14.6170222 6.0112,14.8432444 5.03786667,15.2943556 L5.03786667,15.2588 C4.46808889,15.5912444 4.02808889,16.0188 3.72008889,16.5405778 C3.4112,17.0632444 3.25697778,17.7401333 3.25697778,18.5708 L3.25697778,19.7459111 L24.0218667,19.7459111 C24.2352,19.7459111 24.3418667,19.8530222 24.3418667,20.0668 L24.3418667,22.3463556 C24.3418667,22.5596889 24.2352,22.6668 24.0218667,22.6668 L0.621422222,22.6668 C0.454755556,22.6668 0.372088889,22.5596889 0.372088889,22.3463556 L0.372088889,18.6063556 C0.372088889,15.8761333 1.38097778,13.9645778 3.39964444,12.8721333 C4.87164444,12.1361333 7.06808889,11.7681333 9.98853333,11.7681333 L10.9503111,11.7681333 C11.3063111,11.7681333 11.7338667,11.7805778 12.2325333,11.8036889 C12.7543111,11.8276889 13.1938667,11.8392444 13.5503111,11.8392444 L14.5120889,11.8392444 C16.7672,11.8392444 18.4414222,11.5779111 19.5338667,11.0556889 C20.9107556,10.4628 21.5996444,9.34591111 21.5996444,7.70768889 C21.5996444,6.63924444 21.4094222,5.74324444 21.0298667,5.0188 C20.6498667,4.2948 20.0796444,3.77835556 19.3205333,3.46902222 C18.3943111,3.11346667 16.5654222,2.9348 13.8352,2.9348 L11.2352,2.9348 C9.97653333,2.9348 8.94364444,2.97035556 8.13653333,3.04191111 C7.32897778,3.11346667 6.68808889,3.20813333 6.21297778,3.3268 C5.33475556,3.51746667 4.68764444,3.88502222 4.27208889,4.4308 C3.85653333,4.97746667 3.63653333,5.64191111 3.61342222,6.42546667 C3.61342222,6.63924444 3.49386667,6.74591111 3.25697778,6.74591111 L0.8352,6.74591111 C0.644977778,6.74591111 0.550311111,6.63924444 0.550311111,6.42546667 C0.550311111,3.67124444 1.78453333,1.83124444 4.25431111,0.905022222 C5.65475556,0.311688889 7.98186667,0.0143555556 11.2352,0.0143555556 L13.8352,0.0143555556 C15.6160889,0.0143555556 17.1352,0.103688889 18.3943111,0.281466667 C19.6525333,0.459688889 20.6378667,0.7508 21.3503111,1.15391111 C22.3712,1.70057778 23.1427556,2.50768889 23.6654222,3.57657778 C24.1876444,4.64457778 24.4494222,6.02191111 24.4494222,7.70768889 C24.4494222,9.06102222 24.2054222,10.2308 23.7187556,11.2161333" id="Fill-13" fill="#87D3ED" mask="url(#mask-6)"></path>
                        </g>
                    </g>
                    <g id="Group-15" transform="translate(0.000000, 0.000000)" fill="#FFFFFF">
                        <path d="M24.831193,12.8650112 C23.9239343,12.8650112 23.1852629,12.127221 23.1852629,11.2199622 C23.1852629,10.3124098 23.9239343,9.57491329 24.831193,9.57491329 C25.7378643,9.57491329 26.4765357,10.3124098 26.4765357,11.2199622 C26.4765357,12.127221 25.7378643,12.8650112 24.831193,12.8650112 M11.1371371,32.3565357 C10.2289972,32.3565357 9.49120699,31.618158 9.49120699,30.7114867 C9.49120699,29.8039343 10.2289972,29.0664378 11.1371371,29.0664378 C12.0438084,29.0664378 12.7815986,29.8039343 12.7815986,30.7114867 C12.7815986,31.618158 12.0438084,32.3565357 11.1371371,32.3565357 M28.6699343,11.2199622 C28.6699343,9.10028392 26.951165,7.38122098 24.831193,7.38122098 C22.7115147,7.38122098 20.9918643,9.10028392 20.9918643,11.2199622 C20.9918643,12.8764657 22.044214,14.2844937 23.5148014,14.8225636 C23.2877664,15.9979762 22.8548434,17.202172 22.0718224,18.0944517 C21.1284378,19.1697105 19.808228,19.6930951 18.0377664,19.6930951 C15.6528713,19.6930951 13.7390811,20.4787594 12.3519063,22.0286476 C11.0578364,23.4739762 10.4575007,25.347235 10.1890531,26.9955147 C8.52843776,27.418158 7.29780839,28.9189972 7.29780839,30.7114867 C7.29780839,32.831165 9.01745874,34.550228 11.1371371,34.550228 C13.2571091,34.550228 14.9755846,32.831165 14.9755846,30.7114867 C14.9755846,29.0317804 13.8959203,27.6084797 12.3939063,27.0874448 C12.6229972,25.8418364 13.0829413,24.500186 13.9857944,23.4918923 C14.9538503,22.4116406 16.2784657,21.8867874 18.0377664,21.8867874 C20.4435147,21.8867874 22.3546615,21.0967175 23.7209832,19.5418364 C24.8984517,18.1993049 25.4644238,16.4943399 25.7246476,14.9503259 C27.4128713,14.5470671 28.6699343,13.0315427 28.6699343,11.2199622" id="Fill-1"></path>
                        <path d="M9.49135385,11.2199329 C9.49135385,10.3123804 10.2291441,9.57488392 11.1372839,9.57488392 C12.0436615,9.57488392 12.7814517,10.3123804 12.7814517,11.2199329 C12.7814517,12.1271916 12.0436615,12.8649818 11.1372839,12.8649818 C10.2291441,12.8649818 9.49135385,12.1271916 9.49135385,11.2199329 M13.8954797,18.0944224 C13.112165,17.2021427 12.6801231,15.9982406 12.4533818,14.8225343 C13.9239692,14.284758 14.9757315,12.8767301 14.9757315,11.2199329 C14.9757315,9.10025455 13.2569622,7.38119161 11.1372839,7.38119161 C9.01760559,7.38119161 7.29766154,9.10025455 7.29766154,11.2199329 C7.29766154,13.0312196 8.55501818,14.5467441 10.2435357,14.9502965 C10.5034657,16.4943105 11.0694378,18.1992755 12.2469063,19.541807 C12.432235,19.7512196 12.6272559,19.9471217 12.8325566,20.1289259 C13.5013259,19.6504783 14.2426406,19.284814 15.051214,19.0298769 C14.6168224,18.785807 14.2317734,18.4762406 13.8954797,18.0944224" id="Fill-3"></path>
                        <path d="M24.831193,32.3564769 C23.9239343,32.3564769 23.1852629,31.6180993 23.1852629,30.711428 C23.1852629,29.8038755 23.9239343,29.066379 24.831193,29.066379 C25.7378643,29.066379 26.4765357,29.8038755 26.4765357,30.711428 C26.4765357,31.6180993 25.7378643,32.3564769 24.831193,32.3564769 M25.7783958,26.9954559 C25.5108294,25.3471762 24.9107874,23.4739175 23.6158364,22.0285888 C23.4587035,21.8535399 23.2933469,21.6887706 23.1235846,21.5322252 C22.4495287,21.9998056 21.7023399,22.356365 20.8834867,22.5977916 C21.2899762,22.8362811 21.6585776,23.1299874 21.9828294,23.4918336 C22.8850951,24.5001273 23.3450392,25.8420713 23.5738364,27.0876797 C22.0721161,27.6087147 20.9918643,29.0320154 20.9918643,30.711428 C20.9918643,32.8311063 22.7115147,34.5501692 24.831193,34.5501692 C26.951165,34.5501692 28.6699343,32.8311063 28.6699343,30.711428 C28.6699343,28.918351 27.4393049,27.4178056 25.7783958,26.9954559" id="Fill-5"></path>
                        <path d="M32.1741441,17.217386 C30.0535846,17.217386 28.3348154,18.936449 28.3348154,21.0561273 C28.3348154,23.1766867 30.0535846,24.8954559 32.1741441,24.8954559 C34.2938224,24.8954559 36.0125916,23.1766867 36.0125916,21.0561273 C36.0125916,18.936449 34.2938224,17.217386 32.1741441,17.217386 M32.1741441,19.4110783 C33.0814028,19.4110783 33.819193,20.1494559 33.819193,21.0561273 C33.819193,21.9642671 33.0814028,22.7017636 32.1741441,22.7017636 C31.2665916,22.7017636 30.528214,21.9642671 30.528214,21.0561273 C30.528214,20.1494559 31.2665916,19.4110783 32.1741441,19.4110783" id="Fill-7"></path>
                        <path d="M3.8395049,17.217386 C1.71953287,17.217386 0.000176223776,18.936449 0.000176223776,21.0561273 C0.000176223776,23.1766867 1.71953287,24.8954559 3.8395049,24.8954559 C5.95918322,24.8954559 7.67795245,23.1766867 7.67795245,21.0561273 C7.67795245,18.936449 5.95918322,17.217386 3.8395049,17.217386 M3.8395049,19.4110783 C4.74617622,19.4110783 5.48455385,20.1494559 5.48455385,21.0561273 C5.48455385,21.9642671 4.74617622,22.7017636 3.8395049,22.7017636 C2.93195245,22.7017636 2.19416224,21.9642671 2.19416224,21.0561273 C2.19416224,20.1494559 2.93195245,19.4110783 3.8395049,19.4110783" id="Fill-9"></path>
                        <path d="M18.005958,0 C15.8862797,0 14.1675105,1.71906294 14.1675105,3.83874126 C14.1675105,5.95841958 15.8862797,7.6766014 18.005958,7.6766014 C20.1265175,7.6766014 21.8452867,5.95841958 21.8452867,3.83874126 C21.8452867,1.71906294 20.1265175,0 18.005958,0 M18.005958,2.19369231 C18.9135105,2.19369231 19.651007,2.93206993 19.651007,3.83874126 C19.651007,4.74541259 18.9135105,5.48290909 18.005958,5.48290909 C17.0986993,5.48290909 16.3614965,4.74541259 16.3614965,3.83874126 C16.3614965,2.93206993 17.0986993,2.19369231 18.005958,2.19369231" id="Fill-11"></path>
                        <path d="M18.005958,34.0649371 C15.8862797,34.0649371 14.1675105,35.784 14.1675105,37.9036783 C14.1675105,40.0242378 15.8862797,41.743007 18.005958,41.743007 C20.1265175,41.743007 21.8452867,40.0242378 21.8452867,37.9036783 C21.8452867,35.784 20.1265175,34.0649371 18.005958,34.0649371 M18.005958,36.2586294 C18.9135105,36.2586294 19.651007,36.9975944 19.651007,37.9036783 C19.651007,38.8118182 18.9135105,39.5493147 18.005958,39.5493147 C17.0986993,39.5493147 16.3614965,38.8118182 16.3614965,37.9036783 C16.3614965,36.9975944 17.0986993,36.2586294 18.005958,36.2586294" id="Fill-13"></path>
                    </g>
                </g>
            </g>
        </g>
    </g>
</svg>