<svg width="16" height="18" viewBox="0 0 16 18" fill="none" xmlns="http://www.w3.org/2000/svg">
<path d="M1 17H3V2H1V17Z" fill="#87D3ED"/>
<path d="M7 17H9V2H7V17Z" fill="#87D3ED"/>
<path d="M13 10H15V2H13V10Z" fill="#87D3ED"/>
<path d="M1 10H14V8H1V10Z" fill="#87D3ED"/>
<path d="M4 2C4 0.89 3.11 0 2 0C0.89 0 0 0.89 0 2C0 3.11 0.89 4 2 4C3.11 4 4 3.11 4 2Z" fill="#87D3ED"/>
<path d="M16 2C16 0.89 15.11 0 14 0C12.89 0 12 0.89 12 2C12 3.11 12.89 4 14 4C15.11 4 16 3.11 16 2Z" fill="#87D3ED"/>
<path d="M10 2C10 0.89 9.11 0 8 0C6.89 0 6 0.89 6 2C6 3.11 6.89 4 8 4C9.11 4 10 3.11 10 2Z" fill="#87D3ED"/>
<path d="M4 16C4 14.89 3.11 14 2 14C0.89 14 0 14.89 0 16C0 17.11 0.89 18 2 18C3.11 18 4 17.11 4 16Z" fill="#87D3ED"/>
<path d="M10 16C10 14.89 9.11 14 8 14C6.89 14 6 14.89 6 16C6 17.11 6.89 18 8 18C9.11 18 10 17.11 10 16Z" fill="#87D3ED"/>
</svg>
